# xmcd
#
# Track frame offsets: 
#        150
#        12745
#        25127
#        37243
#        50162
#        61523
#        74325
#        85785
#        98801
#        109701
#        120851
#        132617
#        145123
#        156827
#        169508
#        180740
#        192062
#        203157
#        215166
#        227944
#        239176
#        252815
#        265080
#        276936
#        287939
#        300422
#        312316
#        325373
#        336489
#        348904
#
# Disc length: 4796 seconds
#
# Revision: 0
# Processed by: cddbd v1.5.2PL0 Copyright (c) Steve Scherf et al.
# Submitted via: ExactAudioCopy v0.95b3
#
DISCID=cb12ba1e
DTITLE=Chet Atkins  - The Early Years 1946- 1957 [Best of] - Disc 1  F
DTITLE=LAC
DYEAR=1900
DGENRE=
TTITLE0=Guitar Blues (Picking the Blue) - Chester Atkins and the All-Sta
TTITLE0=r Hillbillies
TTITLE1=Brown Eyes - Chester Atkins and the All-Star Hillbillies
TTITLE2=Ain'tcha Tired of Makin' Me Blue - Chet Atkins and His Colorado 
TTITLE2=Mountain Boys
TTITLE3=I'm Gonna Get Tight - Chet Atkins and His Colorado Mountain Boys
TTITLE4=Canned Heat - Chet Atkins and His Colorado Mountain Boys
TTITLE5=Standing Room Only - Chet Atkins and His Colorado Mountain Boys
TTITLE6=Don't Hand Me That Line - Chet Atkins and His Colorado Mountain 
TTITLE6=Boys
TTITLE7=Bug Dance - Chet Atkins and His Colorado Mountain Boys
TTITLE8=(I Know My Baby Loves Me) In Her Own Peculiar Way - Chet Atkin
TTITLE8=s and His Colorado Mountain Boys
TTITLE9=Nashville Jump - Chet Atkins and His Colorado Mountain Boys
TTITLE10=My Guitar Is My Sweetheart - Chet Atkins and His Colorado Mount
TTITLE10=ain Boys
TTITLE11=I'm Pickin' the Blues - Chet Atkins and His Colorado Mountain B
TTITLE11=oys
TTITLE12=Gone, Gone, Gone - Chet Atkins and His Colorado Mountain Boys
TTITLE13=Barnyard Shuffle - Chet Atkins and His Colorado Mountain Boys
TTITLE14=Save Your Money - Chet Atkins and His Colorado Mountain Boys
TTITLE15=(I May Be Color Blind But) I Know When I'm Blue - Chet Atkins
TTITLE15=and His Colorado Mountain Boys
TTITLE16=I've Been Working on the Guitar - Chet Atkins and His Colorado 
TTITLE16=Mountain Boys
TTITLE17=Dizzy Strings - Chet Atkins and His Colorado Mountain Boys
TTITLE18=Money, Marbles and Chalk - Chet Atkins and His Guitar Pickers
TTITLE19=Wednesday Night Waltz - Chet Atkins and His Guitar Pickers
TTITLE20=Guitar Waltz - Chet Atkins and His Guitar Pickers
TTITLE21=Tellin' My Troubles to My Old Guitar - Chet Atkins and His Guit
TTITLE21=ar Pickers
TTITLE22=Dance of the Goldenrod - Chet Atkins and His Guitar Pickers
TTITLE23=Galloping on the Guitar - Chet Atkins and His Guitar Pickers
TTITLE24=Barber Shop Rag - Chet Atkins and His Guitar Pickers
TTITLE25=Centipede Boogie - Chet Atkins and His Guitar Pickers
TTITLE26=Under the Hickory Nut Tree - Chet Atkins and His Guitar Pickers
TTITLE27=I Was Bitten by the Same Bug Twice - Chet Atkins and His Guitar
TTITLE27=Pickers
TTITLE28=One More Chance - Chet Atkins and His Guitar Pickers
TTITLE29=Old Buck Dance - Chet Atkins and His Guitar Pickers
EXTD=
EXTT0=
EXTT1=
EXTT2=
EXTT3=
EXTT4=
EXTT5=
EXTT6=
EXTT7=
EXTT8=
EXTT9=
EXTT10=
EXTT11=
EXTT12=
EXTT13=
EXTT14=
EXTT15=
EXTT16=
EXTT17=
EXTT18=
EXTT19=
EXTT20=
EXTT21=
EXTT22=
EXTT23=
EXTT24=
EXTT25=
EXTT26=
EXTT27=
EXTT28=
EXTT29=
PLAYORDER=
